<?xml version="1.0" encoding="UTF-8"?>
<svg id="Layer_2" data-name="Layer 2" xmlns="http://www.w3.org/2000/svg" viewBox="0 0 186.73 35.15">
  <defs>
    <style>
      .cls-1 {
        fill: #fff;
      }

      .cls-2 {
        fill: #fece00;
      }

      .cls-3 {
        fill: #d00;
      }
    </style>
  </defs>
  <g id="Layer_1-2" data-name="Layer 1">
    <g>
      <g>
        <path class="cls-1" d="M80.57,28.19h-3.2c-.02-.93-.03-1.86-.05-2.8-1.52,1.86-3.56,2.8-6.11,2.8-2.83,0-5.14-.98-6.91-2.94-1.77-1.96-2.65-4.5-2.65-7.62s.93-5.7,2.8-7.69c1.86-1.99,4.26-2.98,7.19-2.98,2.32,0,4.28.65,5.88,1.96,1.6,1.3,2.53,3.02,2.8,5.15h-4.31c-.21-1.07-.7-1.89-1.48-2.48-.78-.59-1.76-.88-2.94-.88-1.69,0-3.03.61-4,1.84-.97,1.23-1.46,2.93-1.46,5.09s.49,3.92,1.47,5.15c.98,1.23,2.35,1.84,4.12,1.84,1.39,0,2.53-.42,3.42-1.27.89-.85,1.37-1.95,1.43-3.32h-4.54v-3.31h8.53v11.47Z"/>
        <path class="cls-1" d="M93.25,26.88c-1.22.87-2.67,1.31-4.36,1.31-2.25,0-4.07-.7-5.44-2.1-1.37-1.4-2.06-3.26-2.06-5.57s.69-4.15,2.07-5.62c1.38-1.48,3.14-2.22,5.28-2.22s3.98.75,5.28,2.26c1.31,1.51,1.96,3.55,1.96,6.12v.4h-10.51c.02,1.27.33,2.23.92,2.9.6.66,1.43.99,2.51.99,1.42,0,2.41-.71,2.98-2.13h3.86c-.45,1.57-1.29,2.79-2.51,3.66ZM90.96,16.53c-.53-.62-1.27-.92-2.22-.92-.89,0-1.63.29-2.22.88s-.94,1.39-1.05,2.41h6.42c-.09-.97-.41-1.76-.94-2.37Z"/>
        <path class="cls-1" d="M130.43,18.06v10.13h-4.21v-9c0-.99-.15-1.76-.46-2.29-.31-.53-.96-.8-1.93-.8-1.93,0-2.89,1.21-2.89,3.62v8.47h-4.15v-9.17c0-.93-.16-1.66-.47-2.18s-.92-.77-1.81-.77c-2.01,0-3.01,1.31-3.01,3.94v8.18h-4.15v-15.51h3.94v2.51c1.19-1.65,2.79-2.48,4.79-2.48s3.5.83,4.26,2.48c1.21-1.65,2.85-2.48,4.94-2.48,1.65,0,2.92.48,3.81,1.45.89.96,1.33,2.26,1.33,3.9Z"/>
        <path class="cls-1" d="M141.51,27.76c-.13-.38-.23-.85-.28-1.42-1.23,1.23-2.81,1.85-4.74,1.85-1.63,0-2.91-.39-3.83-1.18-.93-.79-1.39-1.87-1.39-3.25,0-.62.08-1.17.24-1.65.16-.47.43-.87.8-1.19.37-.32.72-.59,1.05-.8s.79-.38,1.38-.51c.59-.13,1.06-.23,1.42-.3s.86-.14,1.51-.21c1.42-.19,2.37-.39,2.85-.6s.72-.6.72-1.16c0-1.31-.88-1.96-2.64-1.96-.93,0-1.61.17-2.05.5-.44.33-.72.91-.85,1.75h-3.78c.23-3.3,2.49-4.94,6.79-4.94s6.39,1.59,6.39,4.77v6.33c0,1.86.17,3.18.51,3.98h-4.09ZM138.35,21.4c-1.19.19-1.97.43-2.33.71-.42.36-.62.85-.62,1.48s.19,1.08.58,1.43.93.53,1.63.53c1.08,0,1.95-.29,2.6-.87.65-.58.98-1.38.98-2.4v-1.65c-.47.28-1.42.54-2.84.77Z"/>
        <path class="cls-1" d="M166.02,28.19h-4.61v-4.56h4.61v4.56Z"/>
        <path class="cls-1" d="M170.98,28.19h-4.15V6.96h4.15v21.23Z"/>
        <path class="cls-1" d="M160.58,18.11v10.08h-4.2v-8.79c0-1.07-.18-1.88-.53-2.44-.35-.55-1.03-.83-2.04-.83-2.18,0-3.27,1.33-3.27,3.97v8.09h-4.12v-15.51h3.94v2.54c1.25-1.68,2.91-2.51,5-2.51,1.62,0,2.89.47,3.82,1.4.93.93,1.4,2.27,1.4,4Z"/>
        <path class="cls-1" d="M106.54,12.85v3.83c-.58-.11-1.12-.17-1.6-.17-1.36,0-2.37.43-3.01,1.3-.64.87-.96,2.03-.96,3.49v6.89h-4.15v-15.51h3.94v3.21c.99-2.08,2.62-3.13,4.88-3.13.19,0,.5.03.9.09Z"/>
        <polygon class="cls-1" points="186.73 28.19 181.71 28.19 177.56 21.5 175.87 23.08 175.87 28.19 171.8 28.19 171.8 6.96 175.87 6.96 175.87 18.52 181.18 13.12 186.06 13.12 180.39 18.7 186.73 28.19"/>
      </g>
      <g>
        <g>
          <path class="cls-2" d="M51.04,17.15L54.78,0l-10.4,17.13c2.22-.13,4.44-.13,6.65.02Z"/>
          <path class="cls-2" d="M44.39,17.13L54.79,0,7.68,30.22c6.51-3.9,13.24-7.37,20.41-9.8,5.24-1.77,10.76-2.95,16.29-3.29Z"/>
          <path d="M44.39,17.13l-5.11,8.42,7.83,9.6,3.93-18c-2.21-.15-4.43-.15-6.65-.02Z"/>
          <path class="cls-3" d="M39.28,25.55l5.11-8.42c-5.53.34-11.05,1.51-16.29,3.29-7.17,2.43-13.91,5.9-20.41,9.8l-7.68,4.93,39.28-9.6Z"/>
        </g>
        <path class="cls-2" d="M44.12,17.14s-.12,0-.34.02c-.06,0-.12,0-.19.01-.07,0-.14.01-.22.02-.16.02-.35.03-.55.05-.21.02-.44.05-.69.07-.25.03-.52.07-.8.1-.14.02-.29.04-.44.06-.15.02-.31.05-.47.07-.32.05-.66.1-1.01.16-.7.13-1.46.26-2.26.43-.2.04-.4.08-.61.13-.2.04-.41.08-.62.14-.42.1-.84.2-1.28.3-.11.03-.22.05-.33.08-.11.02-.22.05-.33.08-.22.06-.44.12-.66.18-.44.12-.89.24-1.34.36-.45.13-.9.27-1.35.4-.23.07-.45.14-.68.2l-.34.1c-.11.04-.23.07-.34.11-.45.15-.9.3-1.35.44-.45.15-.9.29-1.34.45-.44.16-.88.32-1.31.47-.22.08-.43.15-.64.23-.11.04-.21.08-.32.11-.1.04-.21.08-.31.12-.83.33-1.63.64-2.39.94-.19.07-.38.15-.56.23-.18.08-.36.16-.54.23-.35.15-.7.3-1.02.44-.33.14-.64.27-.94.4-.07.03-.15.06-.22.09-.07.03-.14.07-.21.1-.14.06-.28.13-.41.19-.53.24-.99.45-1.36.63-.76.34-1.19.54-1.19.54,0,0,.42-.22,1.16-.6.37-.19.82-.42,1.34-.69.13-.07.26-.13.4-.2.07-.04.14-.07.21-.11.07-.04.14-.07.22-.1.3-.14.61-.28.93-.43.32-.15.66-.31,1.01-.47.18-.08.35-.16.53-.25.18-.08.36-.17.55-.25.76-.31,1.55-.65,2.38-.99.1-.04.21-.09.31-.13.11-.04.21-.08.32-.12.21-.08.43-.16.64-.24.43-.16.87-.32,1.31-.49.44-.17.89-.31,1.34-.46.45-.15.9-.3,1.36-.45.11-.04.23-.08.34-.11l.34-.1c.23-.07.46-.13.68-.2.46-.13.91-.27,1.36-.4.45-.12.91-.23,1.35-.35.22-.06.44-.11.66-.17.11-.03.22-.05.33-.08.11-.02.22-.05.33-.07.44-.1.87-.19,1.29-.28.21-.05.42-.09.63-.12.21-.04.41-.08.61-.11.8-.16,1.57-.27,2.28-.38.35-.05.69-.09,1.02-.13.16-.02.32-.04.47-.06.15-.01.3-.03.45-.04.29-.03.56-.06.81-.07.25-.02.48-.03.69-.04.21-.01.39-.02.56-.02.08,0,.16,0,.22,0,.07,0,.13,0,.19,0,.22,0,.34,0,.34,0Z"/>
      </g>
    </g>
  </g>
</svg>